<?xml version="1.0" encoding="utf-8"?>
<!-- Generator: Adobe Illustrator 16.0.4, SVG Export Plug-In . SVG Version: 6.00 Build 0)  -->
<!DOCTYPE svg PUBLIC "-//W3C//DTD SVG 1.1//EN" "http://www.w3.org/Graphics/SVG/1.1/DTD/svg11.dtd">
<svg version="1.1"
	 id="Layer_1" xmlns:cc="http://creativecommons.org/ns#" xmlns:dc="http://purl.org/dc/elements/1.1/" xmlns:rdf="http://www.w3.org/1999/02/22-rdf-syntax-ns#"
	 xmlns="http://www.w3.org/2000/svg" xmlns:xlink="http://www.w3.org/1999/xlink" x="0px" y="0px" width="24px" height="24px"
	 viewBox="0 0 24 24" enable-background="new 0 0 24 24" xml:space="preserve">
<g transform="translate(0 -1028.4)">
	<g transform="matrix(1.0607 1.0607 -1.0607 1.0607 1146.8 34.926)">
		<path fill="#ECF0F1" d="M-63,1003.4l0,11.3l0,0.7v1L-61,1018.4l2-2l0-1l0-0.7l0-11.3L-63,1003.4z"/>
		<path fill="#BDC3C7" d="M-61,1003.4l0,15l2-2l0-1l0-0.7l0-11.3L-61,1003.4z"/>
		<rect x="-63" y="1004.4" fill="#E67E22" width="4" height="11"/>
		<path fill="#7F8C8D" d="M-61,1000.4c-1.105,0-2,0.9-2,2l0,1l4,0l0-1C-59,1001.3-59.895,1000.4-61,1000.4z"/>
		<g transform="translate(-7,1)">
			<path fill="#34495E" d="M-55.406,1016l1.406,1.4l1.406-1.4l-1.406,0L-55.406,1016z"/>
			<path fill="#2C3E50" d="M-54,1016L-54,1017.4l1.406-1.4L-54,1016z"/>
		</g>
		<path fill="#95A5A6" d="M-61,1000.4c-1.105,0-2,0.9-2,2l0,1l2,0L-61,1000.4z"/>
		<rect x="-61" y="1004.4" fill="#D35400" width="2" height="11"/>
	</g>
</g>
</svg>
