<?xml version="1.0" encoding="utf-8"?>
<svg height="24" version="1.1" width="24" viewBox="0 0 24 24" xmlns="http://www.w3.org/2000/svg">
  <g transform="matrix(1.142857, 0, 0, 1.142857, -1.714283, -1177.599854)">
    <path d="m22 12c0 5.523-4.477 10-10 10-5.5228 0-10-4.477-10-10 0-5.5228 4.4772-10 10-10 5.523 0 10 4.4772 10 10z" fill="#27ae60" transform="translate(0 1029.4)"/>
    <path d="m22 12c0 5.523-4.477 10-10 10-5.5228 0-10-4.477-10-10 0-5.5228 4.4772-10 10-10 5.523 0 10 4.4772 10 10z" fill="#2ecc71" transform="translate(0 1028.4)"/>
    <path d="m16 1037.4-6 6-2.5-2.5-2.125 2.1 2.5 2.5 2 2 0.125 0.1 8.125-8.1-2.125-2.1z" fill="#27ae60"/>
    <path d="m16 1036.4-6 6-2.5-2.5-2.125 2.1 2.5 2.5 2 2 0.125 0.1 8.125-8.1-2.125-2.1z" fill="#ecf0f1"/>
  </g>
</svg>