<?xml version="1.0" encoding="utf-8"?>
<!-- Generator: Adobe Illustrator 16.0.4, SVG Export Plug-In . SVG Version: 6.00 Build 0)  -->
<!DOCTYPE svg PUBLIC "-//W3C//DTD SVG 1.1//EN" "http://www.w3.org/Graphics/SVG/1.1/DTD/svg11.dtd">
<svg version="1.1" id="Слой_1" xmlns="http://www.w3.org/2000/svg" xmlns:xlink="http://www.w3.org/1999/xlink" x="0px" y="0px"
	 width="48px" height="48px" viewBox="-23.91 1676.895 48 48" enable-background="new -23.91 1676.895 48 48" xml:space="preserve">
<g>
	<polygon fill="#E9B53A" points="3.815,1678.984 -15.905,1678.984 -15.905,1722.806 16.961,1722.806 16.961,1692.13 	"/>
</g>
<g opacity="0.2">
	<polygon fill="#070B0C" points="3.815,1692.13 16.961,1692.13 3.815,1678.983 	"/>
</g>
<g>
	<path fill="#1E1E1E" d="M16.961,1723.243h-32.867c-0.255,0-0.438-0.219-0.438-0.438v-43.822c0-0.256,0.219-0.438,0.438-0.438h18.26
		c2.264,0,4.089,1.826,4.089,4.09v6.865h6.866c2.264,0,4.09,1.826,4.09,4.09v29.215C17.4,1723.062,17.218,1723.243,16.961,1723.243z
		 M-15.467,1722.368h31.954v-28.777c0-1.752-1.425-3.213-3.214-3.213H6.007c-0.256,0-0.439-0.219-0.439-0.439v-7.303
		c0-1.754-1.424-3.215-3.213-3.215h-17.821V1722.368z"/>
</g>
<g>
	<g>
		<path fill="#434444" d="M4.911,1680.042c0.657,0.657,1.096,1.57,1.096,2.594v7.303h7.303c0.986,0,1.899,0.402,2.556,1.06l0,0
			L4.911,1680.042L4.911,1680.042z"/>
	</g>
</g>
<g>
	<g>
		<path fill="#1E1E1E" d="M15.866,1691.436L15.866,1691.436c-0.109,0-0.255-0.036-0.328-0.146c-0.621-0.584-1.388-0.913-2.264-0.913
			H6.007c-0.256,0-0.439-0.219-0.439-0.438v-7.303c0-0.877-0.329-1.68-0.949-2.265c-0.073-0.073-0.146-0.22-0.146-0.329
			c0-0.183,0.109-0.364,0.292-0.438c0.183-0.072,0.365-0.036,0.511,0.11l10.956,10.955c0.146,0.146,0.183,0.329,0.109,0.512
			C16.231,1691.326,16.049,1691.436,15.866,1691.436z M6.444,1689.501h6.866c0.146,0,0.292,0,0.438,0.036l-7.305-7.304
			c0,0.146,0.037,0.292,0.037,0.438v6.83H6.444z"/>
	</g>
</g>
<g>
	<g>
		<circle fill="#FFFFFF" cx="0.528" cy="1710.025" r="1.826"/>
	</g>
	<g>
		<g>
			<rect x="-0.933" y="1695.782" fill="#FFFFFF" width="2.922" height="10.225"/>
		</g>
	</g>
</g>
</svg>
