<?xml version="1.0" ?><svg id="Layer_1" style="enable-background:new 0 0 128 128;" version="1.1" viewBox="0 0 128 128" xml:space="preserve" xmlns="http://www.w3.org/2000/svg" xmlns:xlink="http://www.w3.org/1999/xlink"><style type="text/css">
	.st0{fill-rule:evenodd;clip-rule:evenodd;}
	.st1{fill-rule:evenodd;clip-rule:evenodd;fill:#7ACED7;}
</style><g id="XMLID_11_"><circle class="st0" cx="64" cy="64" id="XMLID_9_" r="64"/><path class="st1" d="M4,62h25.3c0-0.1,0-0.1,0-0.2C30.3,45,36,29.3,46.2,16c2.8-3.7,6.8-8.1,10.8-11.6   C27.8,7.8,5,32.1,4,62L4,62z M33.3,62c0.9-16,6.3-30.9,16.1-43.6c3.2-4.2,8-9.4,12.6-12.9V62H33.3L33.3,62z M70.9,4.4   c4,3.5,8,7.9,10.8,11.6C92,29.3,97.7,45,98.7,61.8c0,0.1,0,0.1,0,0.2H124C123,32.1,100.2,7.8,70.9,4.4L70.9,4.4z M94.7,62H66V5.5   c4.6,3.5,9.4,8.7,12.6,12.9C88.3,31.1,93.7,46,94.7,62L94.7,62z M71,123.6c4-3.5,7.9-7.9,10.8-11.6C92,98.7,97.7,83,98.7,66.2   c0-0.1,0-0.2,0-0.2H124C123,95.9,100.2,120.2,71,123.6L71,123.6z M94.7,66H66v56.5c4.6-3.5,9.4-8.7,12.6-12.9   C88.3,96.9,93.7,82,94.7,66L94.7,66z M62,122.5c-4.6-3.5-9.4-8.7-12.6-12.9C39.7,96.9,34.3,82,33.3,66H62V122.5L62,122.5z M29.3,66   H4c1,29.9,23.8,54.2,53,57.6c-4-3.5-7.9-7.9-10.8-11.6C36,98.7,30.3,83,29.3,66.2C29.3,66.2,29.3,66.1,29.3,66z" id="XMLID_12_"/></g></svg>