<?xml version="1.0" ?><!DOCTYPE svg  PUBLIC '-//W3C//DTD SVG 1.1//EN'  'http://www.w3.org/Graphics/SVG/1.1/DTD/svg11.dtd'><svg enable-background="new 0 0 24 24" height="24px" id="Layer_1" version="1.1" viewBox="0 0 24 24" width="24px" xml:space="preserve" xmlns="http://www.w3.org/2000/svg" xmlns:xlink="http://www.w3.org/1999/xlink"><g><path d="M13,12c1.1,0,2-0.9,2-2V5.5C15,5.2,14.8,5,14.5,5S14,5.2,14,5.5V10c0,0.6-0.4,1-1,1s-1-0.4-1-1V3c0-1.1,0.9-2,2-2   s2,0.9,2,2h1c0-1.7-1.3-3-3-3s-3,1.3-3,3v7C11,11.1,11.9,12,13,12z"/><path d="M19.9,1h-2.4C17.8,1.6,18,2.3,18,3h1v19H2V3h8c0-0.7,0.2-1.4,0.6-2H1.1C0.5,1,0,1.5,0,2.1v20.8C0,23.5,0.5,24,1.1,24h18.8   c0.6,0,1.1-0.5,1.1-1.1V2.1C21,1.5,20.5,1,19.9,1z"/><g><rect height="1" width="4" x="5" y="8"/><rect height="1" width="4" x="5" y="10"/><rect height="1" width="4" x="5" y="12"/><rect height="1" width="11" x="5" y="14"/><rect height="1" width="11" x="5" y="16"/><rect height="1" width="11" x="5" y="18"/></g></g></svg>