<?xml version="1.0" encoding="utf-8"?>
<svg version="1.1" id="Layer_1" x="0px" y="0px" width="480px" height="360px" viewBox="0 0 479.9989929199219 360" enable-background="new -216 -216 480 480" xmlns="http://www.w3.org/2000/svg">
  <path d="M 438.262 357.391 L 41.74 357.391 C 18.688 357.391 0 338.702 0 315.653 L 0 44.349 C 0 21.299 18.688 2.609 41.74 2.609 L 438.261 2.609 C 461.312 2.609 479.999 21.298 479.999 44.349 L 479.999 315.653 C 480 338.701 461.312 357.391 438.262 357.391 Z M 459.131 44.348 C 459.131 32.827 449.776 23.478 438.262 23.478 L 41.74 23.478 C 30.219 23.478 20.87 32.827 20.87 44.348 L 20.87 315.652 C 20.87 327.168 30.219 336.522 41.74 336.522 L 438.261 336.522 C 449.775 336.522 459.13 327.168 459.13 315.652 L 459.13 44.348 Z M 420.877 291.809 L 354.783 225.713 L 317.017 263.479 L 351.808 298.268 C 355.779 302.243 355.779 308.693 351.808 312.678 C 347.823 316.651 341.372 316.651 337.398 312.678 L 187.828 163.105 L 59.125 291.808 C 55.15 295.781 48.699 295.781 44.716 291.808 C 40.736 287.823 40.736 281.372 44.716 277.398 L 179.374 142.739 C 179.709 142.235 179.929 141.685 180.368 141.236 C 182.422 139.178 185.137 138.241 187.828 138.301 C 190.516 138.24 193.232 139.178 195.286 141.236 C 195.725 141.685 195.932 142.235 196.278 142.739 L 302.61 249.068 L 346.326 205.353 C 346.672 204.855 346.886 204.294 347.322 203.845 C 349.383 201.797 352.092 200.85 354.783 200.909 C 357.472 200.849 360.183 201.797 362.242 203.845 C 362.68 204.294 362.894 204.855 363.24 205.353 L 435.285 277.398 C 439.26 281.373 439.26 287.823 435.285 291.808 C 431.302 295.781 424.852 295.781 420.877 291.809 Z M 292.174 127.827 C 269.125 127.827 250.434 109.138 250.434 86.087 C 250.434 63.037 269.125 44.348 292.174 44.348 C 315.226 44.348 333.914 63.037 333.914 86.087 C 333.914 109.138 315.226 127.827 292.174 127.827 Z M 292.174 65.217 C 280.66 65.217 271.304 74.568 271.304 86.087 C 271.304 97.608 280.66 106.957 292.174 106.957 C 303.688 106.957 313.045 97.608 313.045 86.087 C 313.045 74.568 303.688 65.217 292.174 65.217 Z" fill="#aaa"/>
</svg>