<?xml version="1.0" encoding="utf-8"?>
<!-- Generator: Adobe Illustrator 16.0.4, SVG Export Plug-In . SVG Version: 6.00 Build 0)  -->
<!DOCTYPE svg PUBLIC "-//W3C//DTD SVG 1.1//EN" "http://www.w3.org/Graphics/SVG/1.1/DTD/svg11.dtd">
<svg version="1.1" id="Layer_1" xmlns="http://www.w3.org/2000/svg" xmlns:xlink="http://www.w3.org/1999/xlink" x="0px" y="0px"
	 width="480px" height="480px" viewBox="-216 -216 480 480" enable-background="new -216 -216 480 480" xml:space="preserve">
<path d="M222.262,201.391H-174.26c-23.052,0-41.74-18.689-41.74-41.738v-271.304c0-23.05,18.688-41.74,41.74-41.74h396.521
	c23.051,0,41.738,18.689,41.738,41.74v271.304C264,182.701,245.312,201.391,222.262,201.391z M243.131-111.652
	c0-11.521-9.355-20.87-20.869-20.87H-174.26c-11.521,0-20.87,9.349-20.87,20.87v271.304c0,11.516,9.349,20.87,20.87,20.87h396.521
	c11.514,0,20.869-9.354,20.869-20.87V-111.652z M204.877,135.809l-66.094-66.096l-37.766,37.766l34.791,34.789
	c3.971,3.975,3.971,10.425,0,14.41c-3.985,3.973-10.436,3.973-14.41,0L-28.172,7.105l-128.703,128.703
	c-3.975,3.973-10.426,3.973-14.409,0c-3.98-3.985-3.98-10.436,0-14.41L-36.626-13.261c0.335-0.504,0.555-1.054,0.994-1.503
	c2.054-2.058,4.769-2.995,7.46-2.935c2.688-0.061,5.404,0.877,7.458,2.935c0.439,0.449,0.646,0.999,0.992,1.503L86.61,93.068
	l43.716-43.715c0.346-0.498,0.56-1.059,0.996-1.508c2.061-2.048,4.77-2.995,7.461-2.936c2.689-0.06,5.4,0.888,7.459,2.936
	c0.438,0.449,0.652,1.01,0.998,1.508l72.045,72.045c3.975,3.975,3.975,10.425,0,14.41
	C215.302,139.781,208.852,139.781,204.877,135.809z M76.174-28.173c-23.049,0-41.74-18.689-41.74-41.74
	c0-23.05,18.691-41.739,41.74-41.739c23.052,0,41.74,18.689,41.74,41.739C117.914-46.862,99.226-28.173,76.174-28.173z
	 M76.174-90.783c-11.514,0-20.87,9.351-20.87,20.87c0,11.521,9.356,20.87,20.87,20.87s20.871-9.349,20.871-20.87
	C97.045-81.432,87.688-90.783,76.174-90.783z"/>
</svg>
