<?xml version="1.0" encoding="utf-8"?>
<!-- Generator: Adobe Illustrator 16.0.4, SVG Export Plug-In . SVG Version: 6.00 Build 0)  -->
<!DOCTYPE svg PUBLIC "-//W3C//DTD SVG 1.1//EN" "http://www.w3.org/Graphics/SVG/1.1/DTD/svg11.dtd">
<svg version="1.1" id="Layer_1" xmlns="http://www.w3.org/2000/svg" xmlns:xlink="http://www.w3.org/1999/xlink" x="0px" y="0px"
	 width="480px" height="480px" viewBox="-216 -216 480 480" enable-background="new -216 -216 480 480" xml:space="preserve">
<path d="M217.912,184.5h-387.824c-22.544,0-40.823-18.277-40.823-40.824V-80.853c0-22.545,18.279-40.823,40.823-40.823h10.206l0,0
	c0-11.269,9.145-20.412,20.412-20.412h20.412c11.268,0,20.412,9.144,20.412,20.412h20.412c0,0,11.481-1.275,20.412-10.207
	l20.411-20.411c0,0,7.974-10.206,20.412-10.206h81.647c13.395,0,20.41,10.206,20.41,10.206l20.413,20.411
	c8.929,8.932,20.41,10.207,20.41,10.207h91.854c22.543,0,40.822,18.278,40.822,40.823v224.529
	C258.734,166.223,240.455,184.5,217.912,184.5z M238.324-80.853c0-11.266-9.15-20.411-20.412-20.411l-94.105-0.135
	c-3.109-0.334-19.276-2.742-32.59-16.052l-21.738-21.737l-1.066-1.54c0-0.016-1.594-1.36-3.588-1.36h-81.647
	c-1.56,0-3.828,1.818-4.326,2.357l-0.768,0.981l-21.298,21.29c-13.321,13.32-29.487,15.718-32.587,16.052l-42.368,0.059
	c-0.245,0.025-0.479,0.086-0.713,0.086h-20.412c-0.145,0-0.264-0.042-0.409-0.042l-30.209,0.042
	c-11.267,0-20.411,9.145-20.411,20.411v224.529c0,11.264,9.145,20.412,20.411,20.412h387.824c11.262,0,20.412-9.148,20.412-20.412
	V-80.853z M24,143.676c-62.003,0-112.265-50.271-112.265-112.264C-88.265-30.586-38.003-80.853,24-80.853
	c62.002,0,112.264,50.267,112.264,112.265C136.264,93.404,86.002,143.676,24,143.676z M24-60.441
	c-50.735,0-91.853,41.117-91.853,91.853c0,50.729,41.117,91.854,91.853,91.854c50.729,0,91.854-41.125,91.854-91.854
	C115.854-19.324,74.729-60.441,24-60.441z M24,82.442c-28.19,0-51.029-22.844-51.029-51.03c0-28.19,22.839-51.03,51.029-51.03
	c28.187,0,51.031,22.84,51.031,51.03C75.031,59.599,52.187,82.442,24,82.442z M24,0.794c-16.903,0-30.617,13.719-30.617,30.618
	C-6.617,48.315,7.097,62.03,24,62.03c16.913,0,30.619-13.715,30.619-30.618C54.619,14.513,40.913,0.794,24,0.794z M-118.882-40.031
	h-40.824c-5.641,0-10.206-4.559-10.206-10.204v-20.412c0-5.636,4.565-10.206,10.206-10.206h40.824
	c5.641,0,10.206,4.57,10.206,10.206v20.412C-108.676-44.59-113.241-40.031-118.882-40.031z"/>
</svg>
