<?xml version="1.0" encoding="utf-8"?>
<svg version="1.1" x="0px" y="0px" width="80px" height="80px" viewBox="0 0 80 80" xmlns="http://www.w3.org/2000/svg" xmlns:bx="https://boxy-svg.com">
  <path d="M 40 80 C 17.908 80 0 62.091 0 40 C 0 17.908 17.908 0 40 0 C 62.091 0 80 17.908 80 40 C 80 62.091 62.091 80 40 80 Z M 62.158 68.571 C 61.861 68.132 61.481 67.585 61.179 67.158 C 60.651 66.406 60.123 65.659 59.65 64.914 C 59.628 64.881 57.02 61.38 47.619 60.952 C 44.349 60.952 41.972 58.499 41.966 55.111 L 41.905 53.333 C 41.905 53.076 41.875 53.616 41.905 53.333 L 41.905 51.428 L 43.81 49.524 C 45.201 48.878 46.972 47.792 48.371 46.735 L 48.629 46.559 C 49.736 45.856 51.282 44.375 51.429 43.809 L 51.497 43.084 C 52.208 39.421 53.333 32.758 53.333 30.476 C 53.333 21.505 48.971 17.143 40 17.143 C 30.905 17.143 26.667 21.379 26.667 30.476 C 26.667 32.819 27.792 39.449 28.501 43.076 L 28.568 43.75 C 28.688 44.345 30.089 45.755 31.328 46.533 L 31.514 46.652 C 33.015 47.701 34.809 48.869 36.19 49.524 L 38.095 51.429 L 38.095 53.333 C 38.122 53.598 38.095 53.054 38.095 53.333 L 38.032 55.112 C 38.032 58.493 35.659 60.949 32.541 60.949 C 32.539 60.949 32.537 60.949 32.535 60.949 C 23.095 61.332 20.358 64.903 20.354 64.903 C 19.874 65.659 19.349 66.406 18.817 67.161 C 18.518 67.586 18.141 68.133 17.84 68.572 C 23.967 73.33 31.64 76.19 39.998 76.19 C 48.356 76.19 56.03 73.33 62.158 68.571 Z M 40 3.809 C 20.013 3.809 3.81 20.013 3.81 40 C 3.81 50.26 8.095 59.498 14.953 66.083 C 15.68 65.007 16.458 63.932 17.143 62.857 C 17.143 62.857 20.324 57.632 32.381 57.143 C 33.61 57.143 34.223 56.339 34.223 55.111 L 34.225 55.111 C 34.223 54.12 34.223 53.333 34.223 53.333 C 34.223 53.086 34.183 52.863 34.171 52.623 C 32.792 51.972 31.193 51.071 29.335 49.777 C 29.335 49.777 24.764 46.964 24.764 43.809 C 24.764 43.809 22.859 34.065 22.859 30.476 C 22.859 21.63 26.642 13.333 40.002 13.333 C 53.183 13.333 57.145 21.63 57.145 30.476 C 57.145 33.977 55.24 43.809 55.24 43.809 C 55.24 46.879 50.669 49.777 50.669 49.777 C 48.85 51.15 47.238 52.067 45.826 52.723 C 45.815 52.929 45.781 53.121 45.781 53.333 C 45.781 53.333 45.779 54.12 45.779 55.111 L 45.781 55.111 C 45.778 56.339 46.392 57.143 47.619 57.143 C 59.855 57.691 62.857 62.857 62.857 62.857 C 63.542 63.932 64.319 65.007 65.044 66.083 C 71.903 59.498 76.19 50.26 76.19 40 C 76.19 20.013 59.987 3.809 40 3.809 Z" fill="#aaa" bx:origin="0 0"/>
</svg>