<svg version="1.1" xmlns="http://www.w3.org/2000/svg" x="0px" y="0px" width="480px" height="480px" viewBox="-216 -216 480 480">
<path d="M23.25,259C-106.952,259-212.5,153.446-212.5,23.25c0-130.204,105.548-235.75,235.75-235.75
	C153.446-212.5,259-106.954,259,23.25C259,153.446,153.446,259,23.25,259z M153.842,191.643c-1.751-2.588-3.987-5.811-5.767-8.333
	c-3.114-4.428-6.227-8.835-9.011-13.221c-0.133-0.197-15.5-20.829-70.909-23.351c-19.272,0-33.282-14.461-33.316-34.425
	l-0.361-10.48c0-1.514-0.177,1.666,0,0V90.606L45.704,79.38c8.2-3.803,18.638-10.206,26.88-16.433l1.522-1.041
	c6.525-4.145,15.635-12.871,16.501-16.205l0.406-4.275c4.188-21.59,10.82-60.861,10.82-74.308c0-52.874-25.71-78.583-78.584-78.583
	c-53.604,0-78.583,24.969-78.583,78.583c0,13.809,6.633,52.886,10.81,74.264l0.394,3.97c0.708,3.507,8.969,11.818,16.27,16.399
	l1.097,0.703c8.847,6.183,19.421,13.068,27.56,16.926l11.227,11.227v11.227c0.158,1.557,0-1.645,0,0l-0.373,10.48
	c0,19.932-13.983,34.402-32.364,34.402c-0.01,0-0.021,0-0.033,0c-55.637,2.259-71.77,23.307-71.791,23.307
	c-2.83,4.452-5.927,8.859-9.062,13.31c-1.759,2.5-3.985,5.723-5.755,8.311c36.111,28.044,81.33,44.903,130.591,44.903
	C72.499,236.546,117.729,219.687,153.842,191.643z M23.25-190.049c-117.797,0-213.297,95.5-213.297,213.299
	c0,60.472,25.259,114.915,65.674,153.725c4.287-6.338,8.87-12.674,12.909-19.011c0,0,18.748-30.796,89.811-33.679
	c7.241,0,10.854-4.735,10.854-11.972h0.011c-0.011-5.843-0.011-10.48-0.011-10.48c0-1.458-0.237-2.774-0.303-4.188
	c-8.129-3.837-17.557-9.144-28.503-16.773c0,0-26.942-16.576-26.942-35.171c0,0-11.226-57.429-11.226-78.583
	c0-52.134,22.293-101.035,101.036-101.035c77.684,0,101.035,48.9,101.035,101.035c0,20.634-11.228,78.583-11.228,78.583
	c0,18.09-26.937,35.171-26.937,35.171c-10.721,8.091-20.226,13.495-28.545,17.365c-0.067,1.216-0.265,2.347-0.265,3.596
	c0,0-0.012,4.638-0.012,10.48h0.012c-0.021,7.236,3.597,11.972,10.832,11.972c72.114,3.234,89.808,33.679,89.808,33.679
	c4.036,6.337,8.618,12.673,12.893,19.011c40.425-38.81,65.691-93.253,65.691-153.725C236.547-94.549,141.05-190.049,23.25-190.049z"
      fill="#aaa"
	/>
</svg>
